<?xml version="1.0" encoding="utf-8"?>
<!-- Generator: Adobe Illustrator 21.0.2, SVG Export Plug-In . SVG Version: 6.00 Build 0)  -->
<svg version="1.1" id="Layer_1" xmlns="http://www.w3.org/2000/svg" xmlns:xlink="http://www.w3.org/1999/xlink" x="0px" y="0px"
	 viewBox="0 0 91 14" style="enable-background:new 0 0 91 14;" xml:space="preserve">
<style type="text/css">
	.st0{fill:#883ECA;}
</style>
<path class="st0" d="M1,6h78c0.6,0,1,0.4,1,1c0,0.6-0.4,1-1,1H1C0.4,8,0,7.6,0,7C0,6.4,0.4,6,1,6z"/>
<path class="st0" d="M90.8,7.4c-0.1,0.2-0.2,0.5-0.4,0.6c0,0-5.6,5.7-5.6,5.7c-0.4,0.4-1,0.4-1.4,0c-0.4-0.4-0.4-1,0-1.4l5.4-5.4
	l-5.1-5.2c-0.4-0.4-0.4-1,0-1.4c0.4-0.4,1-0.4,1.4,0c0,0,5.6,5.7,5.6,5.7C90.9,6.1,91,6.4,91,6.7C91,6.9,90.9,7.2,90.8,7.4z"/>
</svg>
