<?xml version="1.0" encoding="utf-8"?>
<!-- Generator: Adobe Illustrator 21.0.2, SVG Export Plug-In . SVG Version: 6.00 Build 0)  -->
<svg version="1.1" id="Layer_1" xmlns="http://www.w3.org/2000/svg" xmlns:xlink="http://www.w3.org/1999/xlink" x="0px" y="0px"
	 viewBox="0 0 120 94.6" enable-background="new 0 0 120 94.6" xml:space="preserve">
<path fill="#883ECA" d="M3.9,4.2C1.4,6.9,0,10.2,0,13.9v66.9c0,3.6,1.4,7,3.9,9.6l0,0c2.6,2.7,6.3,4.3,10,4.3h92.3
	c7.6,0,13.9-6.3,13.9-13.9l0,0V13.9C120,6.3,113.8,0,106.1,0H13.9C10.1,0,6.5,1.6,3.9,4.2z M18.6,19.1c1.6-1.8,4.3-1.9,6.1-0.4
	l35.3,31l0,0l35.3-30.9c1.9-1.6,4.6-1.4,6.1,0.4c1.5,1.8,1.4,4.3-0.1,5.9L80.4,46.4l21,23.5c1.6,1.9,1.4,4.6-0.4,6.1
	c-1.8,1.5-4.3,1.4-5.9-0.1L73,54l-6,6.1c-1.9,1.8-4.4,2.8-7,2.8l0,0c-2.6,0-5.1-1-7-2.8L47,54L24.9,75.7c-1.8,1.6-4.5,1.6-6.1,0
	c-1.6-1.6-1.6-4.3-0.1-5.9l21-23.4L18.8,25.1C17.1,23.5,17.1,20.9,18.6,19.1z"/>
</svg>
